<svg id="Group_9" data-name="Group 9" xmlns="http://www.w3.org/2000/svg" viewBox="0 0 25 30.274">
  <defs>
    <style>
      .cls-1 {
        fill: #fff;
      }
    </style>
  </defs>
  <path id="Path_13" data-name="Path 13" class="cls-1" d="M37.7,6.9v6.656a4.38,4.38,0,0,0,.125,1.248.971.971,0,0,0,1,.624,2.414,2.414,0,0,0,1.747-1.04V15.3H42.11V6.9H40.571v6.448c-.333.5-.666.707-.957.707q-.312,0-.374-.374V6.9Zm0,0" transform="translate(-22.05 -4.029)"/>
  <path id="Path_14" data-name="Path 14" class="cls-1" d="M26.147,15.3a2.049,2.049,0,0,0,1.789-.874,3.222,3.222,0,0,0,.458-2V9.471a3.532,3.532,0,0,0-.458-2A2.049,2.049,0,0,0,26.147,6.6a2.151,2.151,0,0,0-1.789.874,3.222,3.222,0,0,0-.458,2v2.954a3.532,3.532,0,0,0,.458,2,2.049,2.049,0,0,0,1.789.874ZM25.4,9.179c0-.79.25-1.165.707-1.165.5,0,.707.374.707,1.165v3.536c0,.79-.25,1.165-.707,1.165-.5,0-.707-.374-.707-1.165Zm0,0" transform="translate(-13.979 -3.854)"/>
  <path id="Path_15" data-name="Path 15" class="cls-1" d="M13.527,11.316V6.74L15.566,0H13.86L12.7,4.452,11.489,0H9.7c.333.957.666,2,1.082,3.162a27.866,27.866,0,0,1,1.04,3.578v4.576Zm0,0" transform="translate(-5.674)"/>
  <path id="Path_16" data-name="Path 16" class="cls-1" d="M23.588,32.023a3.061,3.061,0,0,0-1.744-.79c-2.076-.208-5.191-.333-9.344-.333s-7.267.125-9.344.333a3.061,3.061,0,0,0-1.744.79,3.274,3.274,0,0,0-1,1.664A33.663,33.663,0,0,0,0,39.6a28.979,28.979,0,0,0,.457,5.949,3.206,3.206,0,0,0,.955,1.664A3.061,3.061,0,0,0,3.156,48a85.314,85.314,0,0,0,9.344.374A84.793,84.793,0,0,0,21.844,48a2.83,2.83,0,0,0,1.7-.79,3.274,3.274,0,0,0,1-1.664A29.083,29.083,0,0,0,25,39.637a28.513,28.513,0,0,0-.457-5.908,2.927,2.927,0,0,0-.955-1.706ZM7.143,35.393H5.357V45h-1.7v-9.61H1.869V33.812H7.143ZM11.711,45h-1.5v-.915a2.414,2.414,0,0,1-1.7,1.04.97.97,0,0,1-1-.624,4.589,4.589,0,0,1-.125-1.248V36.683h1.5v6.74q.062.374.374.374c.291,0,.623-.25.955-.707V36.683h1.5Zm5.731-2.5a5.459,5.459,0,0,1-.166,1.706,1.159,1.159,0,0,1-1.2.915,2.061,2.061,0,0,1-1.578-.915v.832H13V33.812h1.5v3.661a2,2,0,0,1,1.578-.915,1.2,1.2,0,0,1,1.2.957,6.479,6.479,0,0,1,.166,1.664Zm5.689-1.373H20.1V42.59c0,.79.249,1.165.789,1.165.374,0,.581-.208.664-.624a5.407,5.407,0,0,0,.042-1.04h1.537V42.3a5.13,5.13,0,0,1-.042,1,2.143,2.143,0,0,1-.374.915,2.1,2.1,0,0,1-1.827.915,2.169,2.169,0,0,1-1.827-.874,3.149,3.149,0,0,1-.5-1.955V39.387a3.477,3.477,0,0,1,.457-1.955,2.146,2.146,0,0,1,1.786-.874,2.094,2.094,0,0,1,1.786.874,3.477,3.477,0,0,1,.457,1.955v1.747Zm0,0" transform="translate(0 -18.099)"/>
  <path id="Path_17" data-name="Path 17" class="cls-1" d="M49.249,47.8c-.5,0-.749.374-.749,1.165v.79h1.539v-.79c-.042-.79-.291-1.165-.79-1.165Zm0,0" transform="translate(-28.368 -27.952)"/>
  <path id="Path_18" data-name="Path 18" class="cls-1" d="M35.749,47.8a1.079,1.079,0,0,0-.749.374V53.25a1.079,1.079,0,0,0,.749.374c.458,0,.666-.374.666-1.123V48.923c0-.749-.25-1.123-.666-1.123Zm0,0" transform="translate(-20.467 -27.958)"/>
</svg>
